<svg width="25" height="25" viewBox="0 0 25 25" fill="none" xmlns="http://www.w3.org/2000/svg">
<path d="M5.82187 4.67279C5.13187 4.67279 4.57187 5.23279 4.57187 5.92279V8.67279C4.57187 8.93801 4.46651 9.19236 4.27898 9.3799C4.09144 9.56743 3.83709 9.67279 3.57187 9.67279C3.30665 9.67279 3.0523 9.56743 2.86476 9.3799C2.67723 9.19236 2.57187 8.93801 2.57187 8.67279V5.92279C2.57187 5.06084 2.91428 4.23419 3.52377 3.62469C4.13327 3.0152 4.95992 2.67279 5.82187 2.67279H8.57187C8.83709 2.67279 9.09144 2.77815 9.27898 2.96568C9.46651 3.15322 9.57187 3.40757 9.57187 3.67279C9.57187 3.93801 9.46651 4.19236 9.27898 4.3799C9.09144 4.56743 8.83709 4.67279 8.57187 4.67279H5.82187ZM5.82187 20.6728C5.13187 20.6728 4.57187 20.1128 4.57187 19.4228V16.6728C4.57187 16.4076 4.46651 16.1532 4.27898 15.9657C4.09144 15.7781 3.83709 15.6728 3.57187 15.6728C3.30665 15.6728 3.0523 15.7781 2.86476 15.9657C2.67723 16.1532 2.57187 16.4076 2.57187 16.6728V19.4228C2.57187 19.8496 2.65593 20.2722 2.81926 20.6665C2.98259 21.0608 3.22198 21.4191 3.52377 21.7209C3.82556 22.0227 4.18384 22.2621 4.57815 22.4254C4.97246 22.5887 5.39507 22.6728 5.82187 22.6728H8.57187C8.83709 22.6728 9.09144 22.5674 9.27898 22.3799C9.46651 22.1924 9.57187 21.938 9.57187 21.6728C9.57187 21.4076 9.46651 21.1532 9.27898 20.9657C9.09144 20.7781 8.83709 20.6728 8.57187 20.6728H5.82187ZM20.5719 5.92279C20.5719 5.23279 20.0119 4.67279 19.3219 4.67279H16.5719C16.3067 4.67279 16.0523 4.56743 15.8648 4.3799C15.6772 4.19236 15.5719 3.93801 15.5719 3.67279C15.5719 3.40757 15.6772 3.15322 15.8648 2.96568C16.0523 2.77815 16.3067 2.67279 16.5719 2.67279H19.3219C19.7487 2.67279 20.1713 2.75685 20.5656 2.92018C20.9599 3.08351 21.3182 3.3229 21.62 3.62469C21.9218 3.92648 22.1612 4.28476 22.3245 4.67907C22.4878 5.07338 22.5719 5.49599 22.5719 5.92279V8.67279C22.5719 8.93801 22.4665 9.19236 22.279 9.3799C22.0914 9.56743 21.8371 9.67279 21.5719 9.67279C21.3067 9.67279 21.0523 9.56743 20.8648 9.3799C20.6772 9.19236 20.5719 8.93801 20.5719 8.67279V5.92279ZM19.3219 20.6728C20.0119 20.6728 20.5719 20.1128 20.5719 19.4228V16.6728C20.5719 16.4076 20.6772 16.1532 20.8648 15.9657C21.0523 15.7781 21.3067 15.6728 21.5719 15.6728C21.8371 15.6728 22.0914 15.7781 22.279 15.9657C22.4665 16.1532 22.5719 16.4076 22.5719 16.6728V19.4228C22.5719 19.8496 22.4878 20.2722 22.3245 20.6665C22.1612 21.0608 21.9218 21.4191 21.62 21.7209C21.3182 22.0227 20.9599 22.2621 20.5656 22.4254C20.1713 22.5887 19.7487 22.6728 19.3219 22.6728H16.5719C16.3067 22.6728 16.0523 22.5674 15.8648 22.3799C15.6772 22.1924 15.5719 21.938 15.5719 21.6728C15.5719 21.4076 15.6772 21.1532 15.8648 20.9657C16.0523 20.7781 16.3067 20.6728 16.5719 20.6728H19.3219ZM7.57187 7.67279H10.5719V10.6728H7.57187V7.67279ZM14.5719 10.6728H10.5719V14.6728H7.57187V17.6728H10.5719V14.6728H14.5719V17.6728H17.5719V14.6728H14.5719V10.6728ZM14.5719 10.6728V7.67279H17.5719V10.6728H14.5719Z" fill="black"/>
</svg>
