<svg width="25" height="25" viewBox="0 0 25 25" fill="none" xmlns="http://www.w3.org/2000/svg">
<path fill-rule="evenodd" clip-rule="evenodd" d="M16.156 9.21698C16.156 10.2778 15.7346 11.2953 14.9844 12.0454C14.2343 12.7956 13.2169 13.217 12.156 13.217C11.0951 13.217 10.0777 12.7956 9.32758 12.0454C8.57743 11.2953 8.15601 10.2778 8.15601 9.21698C8.15601 8.15611 8.57743 7.1387 9.32758 6.38855C10.0777 5.63841 11.0951 5.21698 12.156 5.21698C13.2169 5.21698 14.2343 5.63841 14.9844 6.38855C15.7346 7.1387 16.156 8.15611 16.156 9.21698ZM14.156 9.21698C14.156 9.74741 13.9453 10.2561 13.5702 10.6312C13.1951 11.0063 12.6864 11.217 12.156 11.217C11.6256 11.217 11.1169 11.0063 10.7418 10.6312C10.3667 10.2561 10.156 9.74741 10.156 9.21698C10.156 8.68655 10.3667 8.17784 10.7418 7.80277C11.1169 7.42769 11.6256 7.21698 12.156 7.21698C12.6864 7.21698 13.1951 7.42769 13.5702 7.80277C13.9453 8.17784 14.156 8.68655 14.156 9.21698Z" fill="black"/>
<path fill-rule="evenodd" clip-rule="evenodd" d="M12.1559 1.2171C6.08094 1.2171 1.15594 6.1421 1.15594 12.2171C1.15594 18.2921 6.08094 23.2171 12.1559 23.2171C18.2309 23.2171 23.1559 18.2921 23.1559 12.2171C23.1559 6.1421 18.2309 1.2171 12.1559 1.2171ZM3.15594 12.2171C3.15594 14.3071 3.86894 16.2311 5.06394 17.7591C5.90339 16.6572 6.9861 15.7642 8.22758 15.1498C9.46907 14.5354 10.8357 14.2162 12.2209 14.2171C13.5883 14.2155 14.938 14.5262 16.1671 15.1255C17.3961 15.7248 18.4721 16.5968 19.3129 17.6751C20.1794 16.5387 20.7628 15.2123 21.0148 13.8057C21.2669 12.3991 21.1804 10.9526 20.7624 9.58609C20.3445 8.21954 19.6072 6.97215 18.6114 5.94714C17.6157 4.92213 16.3902 4.14896 15.0363 3.69161C13.6825 3.23426 12.2391 3.10587 10.8258 3.31707C9.41247 3.52828 8.06974 4.07299 6.90871 4.90616C5.74769 5.73932 4.80176 6.83697 4.14917 8.1083C3.49659 9.37962 3.15613 10.7881 3.15594 12.2171ZM12.1559 21.2171C10.0899 21.2204 8.08609 20.5097 6.48394 19.2051C7.12875 18.2817 7.98714 17.5278 8.98602 17.0076C9.9849 16.4873 11.0947 16.2161 12.2209 16.2171C13.3331 16.2161 14.4295 16.4806 15.4189 16.9884C16.4084 17.4963 17.2624 18.2329 17.9099 19.1371C16.2954 20.4841 14.2586 21.2204 12.1559 21.2171Z" fill="black"/>
</svg>
