<svg width="25" height="25" viewBox="0 0 25 25" fill="none" xmlns="http://www.w3.org/2000/svg">
<path d="M20.2508 10.8043C20.2508 10.5391 20.1454 10.2847 19.9579 10.0972C19.7703 9.90965 19.516 9.80429 19.2508 9.80429C18.9855 9.80429 18.7312 9.90965 18.5436 10.0972C18.3561 10.2847 18.2508 10.5391 18.2508 10.8043H20.2508ZM6.25075 10.8043C6.25075 10.5391 6.1454 10.2847 5.95786 10.0972C5.77032 9.90965 5.51597 9.80429 5.25075 9.80429C4.98554 9.80429 4.73118 9.90965 4.54365 10.0972C4.35611 10.2847 4.25075 10.5391 4.25075 10.8043H6.25075ZM20.5438 13.5113C20.7324 13.6934 20.985 13.7942 21.2472 13.792C21.5094 13.7897 21.7602 13.6845 21.9456 13.4991C22.131 13.3137 22.2361 13.0629 22.2384 12.8007C22.2407 12.5385 22.1399 12.2859 21.9578 12.0973L20.5438 13.5113ZM12.2508 3.80429L12.9578 3.09729C12.7702 2.90982 12.5159 2.8045 12.2508 2.8045C11.9856 2.8045 11.7313 2.90982 11.5438 3.09729L12.2508 3.80429ZM2.54375 12.0973C2.44824 12.1895 2.37206 12.2999 2.31965 12.4219C2.26724 12.5439 2.23966 12.6751 2.2385 12.8079C2.23735 12.9407 2.26265 13.0723 2.31293 13.1952C2.36321 13.3181 2.43746 13.4298 2.53136 13.5237C2.62525 13.6176 2.7369 13.6918 2.8598 13.7421C2.98269 13.7924 3.11437 13.8177 3.24715 13.8165C3.37993 13.8154 3.51115 13.7878 3.63316 13.7354C3.75516 13.683 3.86551 13.6068 3.95775 13.5113L2.54375 12.0973ZM7.25075 22.8043H17.2508V20.8043H7.25075V22.8043ZM20.2508 19.8043V10.8043H18.2508V19.8043H20.2508ZM6.25075 19.8043V10.8043H4.25075V19.8043H6.25075ZM21.9578 12.0973L12.9578 3.09729L11.5438 4.51129L20.5438 13.5113L21.9578 12.0973ZM11.5438 3.09729L2.54375 12.0973L3.95775 13.5113L12.9578 4.51129L11.5438 3.09729ZM17.2508 22.8043C18.0464 22.8043 18.8095 22.4882 19.3721 21.9256C19.9347 21.363 20.2508 20.5999 20.2508 19.8043H18.2508C18.2508 20.0695 18.1454 20.3239 17.9579 20.5114C17.7703 20.6989 17.516 20.8043 17.2508 20.8043V22.8043ZM7.25075 20.8043C6.98554 20.8043 6.73118 20.6989 6.54365 20.5114C6.35611 20.3239 6.25075 20.0695 6.25075 19.8043H4.25075C4.25075 20.5999 4.56682 21.363 5.12943 21.9256C5.69204 22.4882 6.4551 22.8043 7.25075 22.8043V20.8043Z" fill="black"/>
</svg>
