<svg width="25" height="25" viewBox="0 0 25 25" fill="none" xmlns="http://www.w3.org/2000/svg">
<path d="M13.0297 19.3543L12.9297 19.4543L12.8197 19.3543C8.06967 15.0443 4.92967 12.1943 4.92967 9.30426C4.92967 7.30426 6.42967 5.80426 8.42967 5.80426C9.96967 5.80426 11.4697 6.80426 11.9997 8.16426H13.8597C14.3897 6.80426 15.8897 5.80426 17.4297 5.80426C19.4297 5.80426 20.9297 7.30426 20.9297 9.30426C20.9297 12.1943 17.7897 15.0443 13.0297 19.3543ZM17.4297 3.80426C15.6897 3.80426 14.0197 4.61426 12.9297 5.88426C11.8397 4.61426 10.1697 3.80426 8.42967 3.80426C5.34967 3.80426 2.92967 6.21426 2.92967 9.30426C2.92967 13.0743 6.32967 16.1643 11.4797 20.8343L12.9297 22.1543L14.3797 20.8343C19.5297 16.1643 22.9297 13.0743 22.9297 9.30426C22.9297 6.21426 20.5097 3.80426 17.4297 3.80426Z" fill="black"/>
</svg>
